<svg width="1600" height="720" viewBox="0 0 1600 720" xmlns="http://www.w3.org/2000/svg" role="img" aria-label="XAIPT Vault Governance Topology">
  <defs><radialGradient id="halo" cx="50%" cy="50%" r="55%"><stop offset="0%" stop-color="#e0f2fe"/><stop offset="56%" stop-color="#ffffff"/><stop offset="100%" stop-color="#fff7ed"/></radialGradient><linearGradient id="accent" x1="0" x2="1"><stop offset="0%" stop-color="#0ea5e9"/><stop offset="55%" stop-color="#2563eb"/><stop offset="100%" stop-color="#f97316"/></linearGradient><filter id="shadow"><feDropShadow dx="0" dy="18" stdDeviation="18" flood-color="#0f172a" flood-opacity=".16"/></filter><filter id="glow"><feGaussianBlur stdDeviation="6" result="b"/><feMerge><feMergeNode in="b"/><feMergeNode in="SourceGraphic"/></feMerge></filter><style>.title{font:900 60px Segoe UI,Arial,sans-serif;fill:#0f172a;letter-spacing:6px}.sub{font:600 22px Segoe UI,Arial,sans-serif;fill:#475569;letter-spacing:1.5px}.node{font:900 24px Segoe UI,Arial,sans-serif;fill:#0f172a}.small{font:500 15px Segoe UI,Arial,sans-serif;fill:#475569}.ring{stroke:url(#accent);stroke-width:4;stroke-dasharray:20 18;fill:none;animation:spin 18s linear infinite;transform-origin:800px 395px}.beam{stroke:url(#accent);stroke-width:5;stroke-linecap:round;stroke-dasharray:22 20;animation:dash 6s linear infinite;opacity:.72}.pulse{animation:pulse 2.8s ease-in-out infinite}.float{animation:float 5.5s ease-in-out infinite}@keyframes dash{to{stroke-dashoffset:-280}}@keyframes spin{to{transform:rotate(360deg)}}@keyframes pulse{0%,100%{opacity:.55}50%{opacity:1}}@keyframes float{0%,100%{transform:translateY(0)}50%{transform:translateY(-10px)}} </style></defs>
  <rect width="1600" height="720" rx="34" fill="url(#halo)"/><text x="800" y="86" text-anchor="middle" class="title">XAIPT PROTECTION VAULT</text><text x="800" y="122" text-anchor="middle" class="sub">PAYMENTS • EMAIL • TRANSACTIONS • IDENTITY • HUMAN AUTHORITY</text>
  <circle cx="800" cy="395" r="210" class="ring"/><circle cx="800" cy="395" r="145" class="ring" style="animation-duration:12s;animation-direction:reverse"/>
  <g filter="url(#shadow)"><rect x="655" y="245" width="290" height="300" rx="46" fill="#ffffff" stroke="#38bdf8" stroke-width="3"/><rect x="690" y="280" width="220" height="230" rx="34" fill="#f8fafc" stroke="#bfdbfe"/><circle cx="800" cy="395" r="72" fill="url(#accent)" filter="url(#glow)"/><text x="800" y="418" text-anchor="middle" font-family="Segoe UI,Arial" font-size="74" font-weight="900" fill="#fff">X</text><rect x="775" y="510" width="50" height="14" rx="7" fill="#f97316"/></g>
  <path d="M650 395 C500 395 435 285 305 250" class="beam"/><path d="M650 395 C490 430 440 525 300 548" class="beam"/><path d="M950 395 C1095 390 1185 285 1300 250" class="beam"/><path d="M950 395 C1100 430 1170 530 1300 550" class="beam"/><path d="M800 245 C800 190 800 165 800 145" class="beam"/>
  <g filter="url(#shadow)" class="float"><rect x="90" y="190" width="285" height="110" rx="26" fill="#ffffff" stroke="#bfdbfe"/><text x="135" y="235" class="node">UPI &amp; Payments</text><text x="135" y="265" class="small">wallets • transfers • approvals</text></g>
  <g filter="url(#shadow)" class="float" style="animation-delay:.5s"><rect x="90" y="500" width="285" height="110" rx="26" fill="#ffffff" stroke="#bfdbfe"/><text x="135" y="545" class="node">Email &amp; Messages</text><text x="135" y="575" class="small">mail • links • communication intent</text></g>
  <g filter="url(#shadow)" class="float" style="animation-delay:1s"><rect x="1225" y="190" width="285" height="110" rx="26" fill="#ffffff" stroke="#fed7aa"/><text x="1270" y="235" class="node">Authority Review</text><text x="1270" y="265" class="small">primary • secondary • trusted device</text></g>
  <g filter="url(#shadow)" class="float" style="animation-delay:1.5s"><rect x="1225" y="500" width="285" height="110" rx="26" fill="#ffffff" stroke="#fed7aa"/><text x="1270" y="545" class="node">Audit Visibility</text><text x="1270" y="575" class="small">timeline • telemetry • accountability</text></g>
  <g class="pulse" filter="url(#glow)"><circle cx="800" cy="145" r="20" fill="#f97316"/><text x="800" y="151" text-anchor="middle" font-family="Segoe UI,Arial" font-size="14" font-weight="900" fill="#fff">HOLD</text></g>
  <text x="800" y="660" text-anchor="middle" font-family="Segoe UI,Arial" font-size="28" font-weight="900" fill="#2563eb" letter-spacing="2">ONE VAULT • EVERY HIGH-RISK ACTION • HUMAN AUTHORITY FIRST</text>
</svg>
